<svg xmlns="http://www.w3.org/2000/svg" width="900" height="385" stroke="#000" stroke-linecap="round" stroke-linejoin="round" fill="#fff" fill-rule="evenodd"><path d="M60.6 382.96H-.5v-82.29h61.1v16.9H20.3v15.6h34.97v16.9H20.3v15.99h40.3v16.9zm70.33-4.16h-22.36q-2.21-7.02-4.48-14.95-2.28-7.93-4.49-15.73-2.21-7.8-4.03-14.56-1.82-6.76-3.12-11.7-1.3-4.94-1.82-7.02l-.52.13q.39 2.34.65 6.18.26 3.83.39 8.06.13 4.22.13 7.73v46.02H71.39v-82.29h34.84q1.82 6.89 3.83 14.5 2.02 7.6 4.04 15.08 2.01 7.47 3.57 14.17 1.56 6.69 2.21 11.63h.26q.65-4.94 2.15-11.57 1.49-6.63 3.44-14.17 1.95-7.54 4.03-15.14 2.08-7.61 3.77-14.5h34.32v82.29h-19.63v-46.02q0-3.51.13-7.73.13-4.23.46-8.06.32-3.84.58-6.18l-.52-.13q-.52 2.08-1.82 7.02-1.3 4.94-3.19 11.77-1.88 6.82-4.09 14.62-2.21 7.8-4.48 15.67-2.28 7.86-4.36 14.88zm101.66-78.13l26.65 81.9v.39h-22.1q-.91-3.12-2.14-7.15-1.24-4.03-2.67-8.58h-28.08q-2.6 9.1-4.81 15.73h-22.1v-.26l26.65-82.03h28.6zm-14.04 14.82q1.3 6.63 3.77 16.12 2.47 9.49 5.33 19.37h-18.59q2.73-9.88 5.2-19.37 2.47-9.49 3.77-16.12h.52zm70.59-14.82v82.29h-20.8v-82.29h20.8zm36.4 64.61h39v17.68h-59.8v-82.29h20.8v64.61zm97.24-6.76h-53.04v-16.25h53.04v16.25z" fill="#4f4f4f" stroke="none"/><g fill="#00991a"><path d="M431.88 362.16v18.33q6.89 1.69 14.17 2.67 7.28.97 16.38.97 13.91 0 22.23-2.86 8.32-2.86 12.03-8.64 3.7-5.79 3.7-14.5 0-7.15-2.15-12.15-2.14-5.01-7.73-8-5.59-2.99-15.99-4.16l-8.19-.91q-5.72-.65-8.71-1.36-2.99-.72-3.96-2.15-.98-1.43-.98-4.29 0-2.86 1.43-4.42 1.43-1.56 5.07-2.27 3.64-.72 10.4-.72 14.04 0 26.91 4.55l.39-.52.39-17.68q-11.31-4.55-28.73-4.55-13.39 0-21.45 2.54-8.06 2.53-11.63 7.99-3.58 5.46-3.58 14.3 0 7.41 2.28 12.68 2.27 5.26 7.79 8.38 5.53 3.12 15.15 4.03l8.58.78q5.85.52 8.84 1.37 2.99.84 4.03 2.27 1.04 1.43 1.04 3.9 0 2.86-1.43 4.68-1.43 1.82-5.91 2.66-4.49.85-13.72.85-6.76 0-13.58-1.1-6.83-1.11-12.55-3.06l-.52.39z" stroke="none"/><use href="#B" stroke="none"/><path d="M605.69 356.57v26.39h-20.8v-82.29h39.26q15.47 0 22.56 6.96 7.08 6.95 7.08 20.47 0 10.14-5.07 17.36-5.07 7.21-13.39 9.03l-.13.39q3.25 2.08 7.15 6.89 3.9 4.81 7.74 10.47 3.83 5.65 6.82 10.59v.13h-24.18l-14.04-20.8q-1.82-2.73-2.92-3.9-1.11-1.17-2.6-1.43-1.5-.26-4.75-.26h-2.73zm15.08-39q6.5 0 9.04 2.6 2.53 2.6 2.53 8.45 0 5.85-2.53 8.45-2.54 2.6-9.04 2.6h-15.08v-22.1h15.08zm99.71-16.77h23.27l-25.61 82.16h-28.6l-24.31-82.16h23.27q2.08 6.5 4.42 14.82 2.34 8.32 4.62 16.97 2.27 8.64 4.03 16.12 1.75 7.47 2.66 12.41h.52q.91-4.94 2.67-12.41 1.75-7.48 4.03-16.06 2.27-8.58 4.61-16.9 2.34-8.32 4.42-14.95z" stroke="none"/><use href="#B" x="242.32" stroke="none"/><path d="M848.01 356.57v26.39h-20.8v-82.29h39.26q15.47 0 22.55 6.96 7.09 6.95 7.09 20.47 0 10.14-5.07 17.36-5.07 7.21-13.39 9.03l-.13.39q3.25 2.08 7.15 6.89 3.9 4.81 7.73 10.47 3.84 5.65 6.83 10.59v.13h-24.18l-14.04-20.8q-1.82-2.73-2.92-3.9-1.11-1.17-2.61-1.43-1.49-.26-4.74-.26h-2.73zm15.08-39q6.5 0 9.03 2.6 2.54 2.6 2.54 8.45 0 5.85-2.54 8.45-2.53 2.6-9.03 2.6h-15.08v-22.1h15.08z" stroke="none"/><path d="M604.23 205.65V62.59a23.8 23.8 0 0 0-23.85-23.85h-222.7a23.8 23.8 0 0 0-23.85 23.85v143.06a23.8 23.8 0 0 0 23.85 23.85h222.7a23.8 23.8 0 0 0 23.85-23.85zM583.41 60.84c5.24 5.24 2.38 10.65-.48 13.35l-64.54 59.13 61.99 64.54c1.91 2.23 3.18 5.73.96 8.11-2.07 2.54-6.84 2.39-8.9.8l-69.47-59.3-34.02 31-33.86-31-69.47 59.3c-2.06 1.59-6.83 1.74-8.9-.8-2.22-2.38-.95-5.88.96-8.11l61.99-64.54-64.54-59.13c-2.86-2.7-5.72-8.11-.48-13.35 5.25-5.25 10.66-2.71 15.11 1.11l99.19 80.12 99.35-80.12c4.45-3.82 9.86-6.36 15.11-1.11z" stroke="none" fill-rule="nonzero"/></g><path d="M249.76 94.66l24.47 44.84 70-135.63.09-.39-94.56 91.18h0zm-45.53-29.53l40.88 24.48L339.86-.5 204.23 65.13h0z" stroke="none" fill="#262626"/><defs ><path id="B" d="M574.49 382.96h-61.1v-82.29h61.1v16.9h-40.3v15.6h34.97v16.9h-34.97v15.99h40.3v16.9z"/></defs></svg>